<?xml version="1.0" encoding="UTF-8" standalone="no"?>
<!-- Created with Inkscape (http://www.inkscape.org/) -->

<svg
   xmlns:dc="http://purl.org/dc/elements/1.1/"
   xmlns:cc="http://creativecommons.org/ns#"
   xmlns:rdf="http://www.w3.org/1999/02/22-rdf-syntax-ns#"
   xmlns:svg="http://www.w3.org/2000/svg"
   xmlns="http://www.w3.org/2000/svg"
   xmlns:sodipodi="http://sodipodi.sourceforge.net/DTD/sodipodi-0.dtd"
   xmlns:inkscape="http://www.inkscape.org/namespaces/inkscape"
   id="svg2"
   version="1.1"
   inkscape:version="0.48.4 r9939"
   width="543.75"
   height="543.75"
   xml:space="preserve"
   sodipodi:docname="gimmel.png"><metadata
     id="metadata8"><rdf:RDF><cc:Work
         rdf:about=""><dc:format>image/svg+xml</dc:format><dc:type
           rdf:resource="http://purl.org/dc/dcmitype/StillImage" /><dc:title></dc:title></cc:Work></rdf:RDF></metadata><defs
     id="defs6" /><sodipodi:namedview
     pagecolor="#ffffff"
     bordercolor="#666666"
     borderopacity="1"
     objecttolerance="10"
     gridtolerance="10"
     guidetolerance="10"
     inkscape:pageopacity="0"
     inkscape:pageshadow="2"
     inkscape:window-width="1920"
     inkscape:window-height="1024"
     id="namedview4"
     showgrid="false"
     fit-margin-top="0"
     fit-margin-left="0"
     fit-margin-right="0"
     fit-margin-bottom="0"
     inkscape:zoom="1.1385068"
     inkscape:cx="332.4807"
     inkscape:cy="281.53678"
     inkscape:window-x="0"
     inkscape:window-y="27"
     inkscape:window-maximized="1"
     inkscape:current-layer="g10" /><g
     id="g10"
     inkscape:groupmode="layer"
     inkscape:label="ink_ext_XXXXXX"
     transform="matrix(1.25,0,0,-1.25,59.9807,534.71322)"><g
       id="g12"
       transform="matrix(0.1,0,0,0.1,-48.48456,-7.7294225)"><path
         d="M 2180,4340 C 3372.93,4340 4340,3372.93 4340,2180 4340,987.066 3372.93,20 2180,20 987.066,20 20,987.066 20,2180 20,3372.93 987.066,4340 2180,4340"
         style="fill:#ffffff;fill-opacity:1;fill-rule:evenodd;stroke:none"
         id="path14"
         inkscape:connector-curvature="0" /><path
         d="M 2180,4340 C 3372.93,4340 4340,3372.93 4340,2180 4340,987.066 3372.93,20 2180,20 987.066,20 20,987.066 20,2180 20,3372.93 987.066,4340 2180,4340 z"
         style="fill:none;stroke:#000000;stroke-width:29.99909973;stroke-linecap:butt;stroke-linejoin:miter;stroke-miterlimit:2.61313009;stroke-opacity:1;stroke-dasharray:none"
         id="path16"
         inkscape:connector-curvature="0" /><path
         d="m 1422.9,4203.22 c 510.59,144.39 944.24,147.92 1467.14,15.58 -127.43,-458.41 -112.36,-849.32 33.96,-1318.98 -223.85,-7.3 -447.7,-14.61 -671.55,-21.91 196.63,-804.41 277.11,-630 480,-885.92 163.27,-205.95 319.59,-402.8 385.18,-630.17 119,-412.593 18.58,-830.945 -99.3,-1165.59 L 2915.92,156.793 C 2977.7,641.73 2893.23,1055.42 2617.52,1487.85 2396.1,1006.93 2377.18,469.758 1953.26,45.082 1569.15,101.25 1267.1,214.488 929.715,431.004 1221.7,748.965 1343.34,1089.74 1456.93,1508.64 l 886.05,-338.95 c 72.21,134.76 144.42,269.51 216.63,404.27 -338.37,413.63 -357.12,817.92 -385.09,1308.39 l -729.17,13.59 c 99.74,459.21 146.28,845.27 -22.45,1307.28"
         style="fill:#231f20;fill-opacity:1;fill-rule:evenodd;stroke:none"
         id="path18"
         inkscape:connector-curvature="0" /><path
         d="m 1422.9,4203.22 c 510.59,144.39 944.24,147.92 1467.14,15.58 -127.43,-458.41 -112.36,-849.32 33.96,-1318.98 -223.85,-7.3 -447.7,-14.61 -671.55,-21.91 196.63,-804.41 277.11,-630 480,-885.92 163.27,-205.95 319.59,-402.8 385.18,-630.17 119,-412.593 18.58,-830.945 -99.3,-1165.59 L 2915.92,156.793 C 2977.7,641.73 2893.23,1055.42 2617.52,1487.85 2396.1,1006.93 2377.18,469.758 1953.26,45.082 1569.15,101.25 1267.1,214.488 929.715,431.004 1221.7,748.965 1343.34,1089.74 1456.93,1508.64 l 886.05,-338.95 c 72.21,134.76 144.42,269.51 216.63,404.27 -338.37,413.63 -357.12,817.92 -385.09,1308.39 l -729.17,13.59 c 99.74,459.21 146.28,845.27 -22.45,1307.28 z"
         style="fill:none;stroke:#231f20;stroke-width:29.99909973;stroke-linecap:butt;stroke-linejoin:miter;stroke-miterlimit:2.61313009;stroke-opacity:1;stroke-dasharray:none"
         id="path20"
         inkscape:connector-curvature="0" /></g></g></svg>